{
	"buffers":[{
		"uri":"data:application/octet-stream;base64,",
		"byteLength":40
	},
	{
		"uri":"data:application/octet-stream;base64,",
		"byteLength":3068
	},
	{
		"uri":"data:application/octet-stream;base64,",
		"byteLength":357548
	},
	{
		"uri":"data:application/octet-stream;base64,",
		"byteLength":2548
	},
	{
		"uri":"data:application/octet-stream;base64,",
		"byteLength":90340
	},
	{
		"uri":"data:application/octet-stream;base64,",
		"byteLength":4316
	},
	{
		"uri":"data:application/octet-stream;base64,",
		"byteLength":41728
	},
	{
		"uri":"data:application/octet-stream;base64,",
		"byteLength":3068
	},
	{
		"uri":"data:application/octet-stream;base64,",
		"byteLength":4016
	},
	{
		"uri":"data:application/octet-stream;base64,",
		"byteLength":2496
	},
	{
		"uri":"data:application/octet-stream;base64,",
		"byteLength":105236
	},
	{
		"uri":"data:application/octet-stream;base64,",
		"byteLength":2496
	}],
	"asset":{
		"version":"2.0",
		"generator":"Created using the official Cinema 4D glTF Exporter 1.000x284978"
	},
	"scenes":[{
		"nodes":[0,
		1]
	}],
	"nodes":[{
		"name":"NurbsPath",
		"translation":[29.89173698425293,
		2.514538049697876,
		-87.59624481201172],
		"rotation":[0.6096292734146118,
		-0.4196752607822418,
		-0.3854936361312866,
		-0.5510167479515076],
		"scale":[39.37008285522461,
		39.370079040527347,
		39.370079040527347]
	},
	{
		"name":"Point001",
		"translation":[-0.13679397106170655,
		5.661645889282227,
		2.1175451278686525],
		"rotation":[0.7071067690849304,
		0.0,
		0.0,
		-0.7071067690849304],
		"scale":[1.0,
		1.0,
		1.0],
		"children":[2,
		3,
		4,
		5,
		6]
	},
	{
		"name":"Object007",
		"translation":[-0.000002422332727292087,
		0.0,
		0.0],
		"rotation":[0.0,
		0.0,
		0.0,
		-1.0],
		"scale":[1.0,
		1.0,
		1.0],
		"mesh":0
	},
	{
		"name":"Object006",
		"translation":[-0.0000024140194909705316,
		16.978696823120118,
		-13.336726188659668],
		"rotation":[0.7653594017028809,
		-8.627407100399883e-17,
		8.627407100399883e-17,
		0.6436031460762024],
		"scale":[1.0,
		1.0,
		1.0],
		"mesh":1
	},
	{
		"name":"procesador_intel",
		"translation":[-7.906769752502441,
		1.3104820251464844,
		-0.5077112317085266],
		"rotation":[0.0,
		0.0,
		0.0,
		-1.0],
		"scale":[0.019832151010632516,
		0.019832151010632516,
		0.019832151010632516],
		"mesh":2
	},
	{
		"name":"Box001",
		"translation":[17.131216049194337,
		1.8721981048583985,
		-0.6994679570198059],
		"rotation":[0.0,
		0.0,
		0.0,
		-1.0],
		"scale":[1.0,
		1.0,
		1.0],
		"mesh":3
	},
	{
		"name":"Object001",
		"translation":[-0.000002422332727292087,
		0.0,
		0.0],
		"rotation":[0.0,
		0.0,
		0.0,
		-1.0],
		"scale":[1.0,
		1.0,
		1.0],
		"mesh":4
	}],
	"animations":[{
		"samplers":[{
			"input":0,
			"interpolation":"LINEAR",
			"output":1
		},
		{
			"input":2,
			"interpolation":"LINEAR",
			"output":3
		},
		{
			"input":4,
			"interpolation":"LINEAR",
			"output":5
		},
		{
			"input":6,
			"interpolation":"LINEAR",
			"output":7
		},
		{
			"input":12,
			"interpolation":"LINEAR",
			"output":13
		},
		{
			"input":14,
			"interpolation":"LINEAR",
			"output":15
		},
		{
			"input":16,
			"interpolation":"LINEAR",
			"output":17
		},
		{
			"input":22,
			"interpolation":"LINEAR",
			"output":23
		},
		{
			"input":24,
			"interpolation":"LINEAR",
			"output":25
		},
		{
			"input":26,
			"interpolation":"LINEAR",
			"output":27
		},
		{
			"input":32,
			"interpolation":"LINEAR",
			"output":33
		},
		{
			"input":34,
			"interpolation":"LINEAR",
			"output":35
		},
		{
			"input":36,
			"interpolation":"LINEAR",
			"output":37
		},
		{
			"input":42,
			"interpolation":"LINEAR",
			"output":43
		},
		{
			"input":44,
			"interpolation":"LINEAR",
			"output":45
		},
		{
			"input":46,
			"interpolation":"LINEAR",
			"output":47
		},
		{
			"input":52,
			"interpolation":"LINEAR",
			"output":53
		},
		{
			"input":54,
			"interpolation":"LINEAR",
			"output":55
		},
		{
			"input":56,
			"interpolation":"LINEAR",
			"output":57
		}],
		"channels":[{
			"sampler":0,
			"target":{
				"node":0,
				"path":"rotation"
			}
		},
		{
			"sampler":1,
			"target":{
				"node":1,
				"path":"translation"
			}
		},
		{
			"sampler":2,
			"target":{
				"node":1,
				"path":"rotation"
			}
		},
		{
			"sampler":3,
			"target":{
				"node":1,
				"path":"scale"
			}
		},
		{
			"sampler":4,
			"target":{
				"node":2,
				"path":"translation"
			}
		},
		{
			"sampler":5,
			"target":{
				"node":2,
				"path":"rotation"
			}
		},
		{
			"sampler":6,
			"target":{
				"node":2,
				"path":"scale"
			}
		},
		{
			"sampler":7,
			"target":{
				"node":3,
				"path":"translation"
			}
		},
		{
			"sampler":8,
			"target":{
				"node":3,
				"path":"rotation"
			}
		},
		{
			"sampler":9,
			"target":{
				"node":3,
				"path":"scale"
			}
		},
		{
			"sampler":10,
			"target":{
				"node":4,
				"path":"translation"
			}
		},
		{
			"sampler":11,
			"target":{
				"node":4,
				"path":"rotation"
			}
		},
		{
			"sampler":12,
			"target":{
				"node":4,
				"path":"scale"
			}
		},
		{
			"sampler":13,
			"target":{
				"node":5,
				"path":"translation"
			}
		},
		{
			"sampler":14,
			"target":{
				"node":5,
				"path":"rotation"
			}
		},
		{
			"sampler":15,
			"target":{
				"node":5,
				"path":"scale"
			}
		},
		{
			"sampler":16,
			"target":{
				"node":6,
				"path":"translation"
			}
		},
		{
			"sampler":17,
			"target":{
				"node":6,
				"path":"rotation"
			}
		},
		{
			"sampler":18,
			"target":{
				"node":6,
				"path":"scale"
			}
		}]
	}],
	"meshes":[{
		"name":"Object007",
		"primitives":[{
			"material":0,
			"attributes":{
				"POSITION":9,
				"NORMAL":10,
				"TEXCOORD_0":11
			},
			"indices":8
		}]
	},
	{
		"name":"Object006",
		"primitives":[{
			"material":0,
			"attributes":{
				"POSITION":19,
				"NORMAL":20,
				"TEXCOORD_0":21
			},
			"indices":18
		}]
	},
	{
		"name":"procesador_intel",
		"primitives":[{
			"material":1,
			"attributes":{
				"POSITION":29,
				"NORMAL":30,
				"TEXCOORD_0":31
			},
			"indices":28
		}]
	},
	{
		"name":"Box001",
		"primitives":[{
			"material":2,
			"attributes":{
				"POSITION":39,
				"NORMAL":40,
				"TEXCOORD_0":41
			},
			"indices":38
		}]
	},
	{
		"name":"Object001",
		"primitives":[{
			"material":0,
			"attributes":{
				"POSITION":49,
				"NORMAL":50,
				"TEXCOORD_0":51
			},
			"indices":48
		}]
	}],
	"accessors":[{
		"min":[0.0],
		"count":2,
		"bufferView":0,
		"type":"SCALAR",
		"componentType":5126,
		"byteOffset":0,
		"max":[3.0]
	},
	{
		"min":[0.6096292734146118,
		-0.4196752607822418,
		-0.3854936361312866,
		-0.5510167479515076],
		"count":2,
		"bufferView":0,
		"type":"VEC4",
		"componentType":5126,
		"byteOffset":8,
		"max":[0.6096292734146118,
		-0.4196752607822418,
		-0.3854936361312866,
		-0.5510167479515076]
	},
	{
		"min":[0.0],
		"count":59,
		"bufferView":1,
		"type":"SCALAR",
		"componentType":5126,
		"byteOffset":0,
		"max":[3.0]
	},
	{
		"min":[-0.13679397106170655,
		5.661645889282227,
		2.1175451278686525],
		"count":59,
		"bufferView":1,
		"type":"VEC3",
		"componentType":5126,
		"byteOffset":236,
		"max":[-0.13679397106170655,
		15.57110595703125,
		2.1175451278686525]
	},
	{
		"min":[0.0],
		"count":59,
		"bufferView":2,
		"type":"SCALAR",
		"componentType":5126,
		"byteOffset":0,
		"max":[3.0]
	},
	{
		"min":[0.7071067690849304,
		0.0,
		0.0,
		-0.7071067690849304],
		"count":59,
		"bufferView":2,
		"type":"VEC4",
		"componentType":5126,
		"byteOffset":236,
		"max":[0.7071067690849304,
		0.0,
		0.0,
		-0.7071067690849304]
	},
	{
		"min":[0.0],
		"count":59,
		"bufferView":3,
		"type":"SCALAR",
		"componentType":5126,
		"byteOffset":0,
		"max":[3.0]
	},
	{
		"min":[1.0,
		1.0,
		1.0],
		"count":59,
		"bufferView":3,
		"type":"VEC3",
		"componentType":5126,
		"byteOffset":236,
		"max":[1.0,
		1.0,
		1.0]
	},
	{
		"min":[0],
		"count":26790,
		"bufferView":4,
		"type":"SCALAR",
		"componentType":5123,
		"byteOffset":0,
		"max":[9498]
	},
	{
		"min":[-21.062694549560548,
		-14.875746726989746,
		0.5905478596687317],
		"count":9499,
		"bufferView":5,
		"type":"VEC3",
		"componentType":5126,
		"byteOffset":0,
		"max":[21.059528350830079,
		13.40119743347168,
		1.0002135038375855]
	},
	{
		"min":[-0.9999654293060303,
		-0.9999489188194275,
		-1.0],
		"count":9499,
		"bufferView":5,
		"type":"VEC3",
		"componentType":5126,
		"byteOffset":12,
		"max":[0.9999629259109497,
		0.999949038028717,
		1.0]
	},
	{
		"min":[0.0057832165621221069,
		-0.9955765008926392],
		"count":9499,
		"bufferView":5,
		"type":"VEC2",
		"componentType":5126,
		"byteOffset":24,
		"max":[1.0012494325637818,
		-0.010465741157531739]
	},
	{
		"min":[0.0],
		"count":49,
		"bufferView":6,
		"type":"SCALAR",
		"componentType":5126,
		"byteOffset":0,
		"max":[3.0]
	},
	{
		"min":[-0.000002422332727292087,
		0.0,
		0.0],
		"count":49,
		"bufferView":6,
		"type":"VEC3",
		"componentType":5126,
		"byteOffset":196,
		"max":[-0.000002422332727292087,
		2.2559731521570003e-15,
		10.211548805236817]
	},
	{
		"min":[0.0],
		"count":49,
		"bufferView":7,
		"type":"SCALAR",
		"componentType":5126,
		"byteOffset":0,
		"max":[3.0]
	},
	{
		"min":[0.0,
		0.0,
		0.0,
		-1.0],
		"count":49,
		"bufferView":7,
		"type":"VEC4",
		"componentType":5126,
		"byteOffset":196,
		"max":[0.0,
		0.0,
		0.0,
		-1.0]
	},
	{
		"min":[0.0],
		"count":49,
		"bufferView":8,
		"type":"SCALAR",
		"componentType":5126,
		"byteOffset":0,
		"max":[3.0]
	},
	{
		"min":[1.0,
		1.0,
		1.0],
		"count":49,
		"bufferView":8,
		"type":"VEC3",
		"componentType":5126,
		"byteOffset":196,
		"max":[1.0,
		1.0,
		1.0]
	},
	{
		"min":[0],
		"count":6738,
		"bufferView":9,
		"type":"SCALAR",
		"componentType":5123,
		"byteOffset":0,
		"max":[2401]
	},
	{
		"min":[-20.836894989013673,
		13.246359825134278,
		-0.09760305285453797],
		"count":2402,
		"bufferView":10,
		"type":"VEC3",
		"componentType":5126,
		"byteOffset":0,
		"max":[21.11149024963379,
		19.838151931762697,
		28.909500122070314]
	},
	{
		"min":[-1.0,
		-0.9836699962615967,
		-0.999911367893219],
		"count":2402,
		"bufferView":10,
		"type":"VEC3",
		"componentType":5126,
		"byteOffset":12,
		"max":[1.0,
		0.9994407892227173,
		0.9958863854408264]
	},
	{
		"min":[0.005472123622894287,
		-0.9950155019760132],
		"count":2402,
		"bufferView":10,
		"type":"VEC2",
		"componentType":5126,
		"byteOffset":24,
		"max":[0.9973046779632568,
		-0.006846427917480469]
	},
	{
		"min":[0.0],
		"count":83,
		"bufferView":11,
		"type":"SCALAR",
		"componentType":5126,
		"byteOffset":0,
		"max":[3.0]
	},
	{
		"min":[-0.0000024140194909705316,
		-0.007695486769080162,
		-13.61517333984375],
		"count":83,
		"bufferView":11,
		"type":"VEC3",
		"componentType":5126,
		"byteOffset":332,
		"max":[-0.0000024140194909705316,
		16.978696823120118,
		1.7068251371383668]
	},
	{
		"min":[0.0],
		"count":83,
		"bufferView":12,
		"type":"SCALAR",
		"componentType":5126,
		"byteOffset":0,
		"max":[3.0]
	},
	{
		"min":[-0.7653594017028809,
		0.0,
		0.0,
		-0.9999246597290039],
		"count":83,
		"bufferView":12,
		"type":"VEC4",
		"componentType":5126,
		"byteOffset":332,
		"max":[0.06052780523896217,
		0.0,
		0.0,
		-0.6436031460762024]
	},
	{
		"min":[0.0],
		"count":83,
		"bufferView":13,
		"type":"SCALAR",
		"componentType":5126,
		"byteOffset":0,
		"max":[3.0]
	},
	{
		"min":[1.0,
		1.0,
		1.0],
		"count":83,
		"bufferView":13,
		"type":"VEC3",
		"componentType":5126,
		"byteOffset":332,
		"max":[1.0,
		1.0,
		1.0]
	},
	{
		"min":[0],
		"count":4416,
		"bufferView":14,
		"type":"SCALAR",
		"componentType":5123,
		"byteOffset":0,
		"max":[1027]
	},
	{
		"min":[-437.4891052246094,
		-216.01705932617188,
		0.0],
		"count":1028,
		"bufferView":15,
		"type":"VEC3",
		"componentType":5126,
		"byteOffset":0,
		"max":[437.4891052246094,
		216.01705932617188,
		30.733760833740236]
	},
	{
		"min":[-1.0,
		-1.0,
		-1.0],
		"count":1028,
		"bufferView":15,
		"type":"VEC3",
		"componentType":5126,
		"byteOffset":12,
		"max":[1.0,
		1.0,
		1.0]
	},
	{
		"min":[0.0,
		-0.9919083118438721],
		"count":1028,
		"bufferView":15,
		"type":"VEC2",
		"componentType":5126,
		"byteOffset":24,
		"max":[0.992758572101593,
		0.0]
	},
	{
		"min":[0.0],
		"count":59,
		"bufferView":16,
		"type":"SCALAR",
		"componentType":5126,
		"byteOffset":0,
		"max":[3.0]
	},
	{
		"min":[-7.906769752502441,
		1.3104820251464844,
		-0.5077112317085266],
		"count":59,
		"bufferView":16,
		"type":"VEC3",
		"componentType":5126,
		"byteOffset":236,
		"max":[-7.906769752502441,
		1.3104820251464844,
		1.2646548748016358]
	},
	{
		"min":[0.0],
		"count":59,
		"bufferView":17,
		"type":"SCALAR",
		"componentType":5126,
		"byteOffset":0,
		"max":[3.0]
	},
	{
		"min":[-0.7071067690849304,
		0.0,
		0.0,
		-1.0],
		"count":59,
		"bufferView":17,
		"type":"VEC4",
		"componentType":5126,
		"byteOffset":236,
		"max":[0.0,
		0.0,
		0.0,
		-0.7071067690849304]
	},
	{
		"min":[0.0],
		"count":59,
		"bufferView":18,
		"type":"SCALAR",
		"componentType":5126,
		"byteOffset":0,
		"max":[3.0]
	},
	{
		"min":[0.019832151010632516,
		0.019832151010632516,
		0.019832151010632516],
		"count":59,
		"bufferView":18,
		"type":"VEC3",
		"componentType":5126,
		"byteOffset":236,
		"max":[0.019832151010632516,
		0.019832151010632516,
		0.019832151010632516]
	},
	{
		"min":[0],
		"count":216,
		"bufferView":19,
		"type":"SCALAR",
		"componentType":5123,
		"byteOffset":0,
		"max":[111]
	},
	{
		"min":[-37.956398010253909,
		-15.812614440917969,
		0.0],
		"count":112,
		"bufferView":20,
		"type":"VEC3",
		"componentType":5126,
		"byteOffset":0,
		"max":[3.760805368423462,
		11.323646545410157,
		1.6230764389038087]
	},
	{
		"min":[-1.0,
		-1.0,
		-1.0],
		"count":112,
		"bufferView":20,
		"type":"VEC3",
		"componentType":5126,
		"byteOffset":12,
		"max":[1.0,
		1.0,
		1.0]
	},
	{
		"min":[0.0,
		0.0],
		"count":112,
		"bufferView":20,
		"type":"VEC2",
		"componentType":5126,
		"byteOffset":24,
		"max":[1.0,
		1.0]
	},
	{
		"min":[0.0],
		"count":48,
		"bufferView":21,
		"type":"SCALAR",
		"componentType":5126,
		"byteOffset":0,
		"max":[3.0]
	},
	{
		"min":[17.131216049194337,
		1.8721981048583985,
		-8.044832229614258],
		"count":48,
		"bufferView":21,
		"type":"VEC3",
		"componentType":5126,
		"byteOffset":192,
		"max":[17.131216049194337,
		1.8721981048583985,
		-0.6994679570198059]
	},
	{
		"min":[0.0],
		"count":48,
		"bufferView":22,
		"type":"SCALAR",
		"componentType":5126,
		"byteOffset":0,
		"max":[3.0]
	},
	{
		"min":[0.0,
		0.0,
		0.0,
		-1.0],
		"count":48,
		"bufferView":22,
		"type":"VEC4",
		"componentType":5126,
		"byteOffset":192,
		"max":[0.0,
		0.0,
		0.0,
		-1.0]
	},
	{
		"min":[0.0],
		"count":48,
		"bufferView":23,
		"type":"SCALAR",
		"componentType":5126,
		"byteOffset":0,
		"max":[3.0]
	},
	{
		"min":[1.0,
		1.0,
		1.0],
		"count":48,
		"bufferView":23,
		"type":"VEC3",
		"componentType":5126,
		"byteOffset":192,
		"max":[1.0,
		1.0,
		1.0]
	},
	{
		"min":[0],
		"count":6906,
		"bufferView":24,
		"type":"SCALAR",
		"componentType":5123,
		"byteOffset":0,
		"max":[2856]
	},
	{
		"min":[-21.062776565551759,
		-14.88105297088623,
		-0.8694144487380981],
		"count":2857,
		"bufferView":25,
		"type":"VEC3",
		"componentType":5126,
		"byteOffset":0,
		"max":[21.067035675048829,
		14.753732681274414,
		1.5112913846969605]
	},
	{
		"min":[-0.999968409538269,
		-0.9999653697013855,
		-0.9999983906745911],
		"count":2857,
		"bufferView":25,
		"type":"VEC3",
		"componentType":5126,
		"byteOffset":12,
		"max":[0.9999657273292542,
		0.9999979138374329,
		1.0]
	},
	{
		"min":[0.0109691321849823,
		-0.991821825504303],
		"count":2857,
		"bufferView":25,
		"type":"VEC2",
		"componentType":5126,
		"byteOffset":24,
		"max":[0.9951086044311523,
		-0.007743477821350098]
	},
	{
		"min":[0.0],
		"count":48,
		"bufferView":26,
		"type":"SCALAR",
		"componentType":5126,
		"byteOffset":0,
		"max":[3.0]
	},
	{
		"min":[-0.000002422332727292087,
		-1.6919798641177502e-15,
		-7.346445560455322],
		"count":48,
		"bufferView":26,
		"type":"VEC3",
		"componentType":5126,
		"byteOffset":192,
		"max":[-0.000002422332727292087,
		0.0,
		0.0]
	},
	{
		"min":[0.0],
		"count":48,
		"bufferView":27,
		"type":"SCALAR",
		"componentType":5126,
		"byteOffset":0,
		"max":[3.0]
	},
	{
		"min":[0.0,
		0.0,
		0.0,
		-1.0],
		"count":48,
		"bufferView":27,
		"type":"VEC4",
		"componentType":5126,
		"byteOffset":192,
		"max":[0.0,
		0.0,
		0.0,
		-1.0]
	},
	{
		"min":[0.0],
		"count":48,
		"bufferView":28,
		"type":"SCALAR",
		"componentType":5126,
		"byteOffset":0,
		"max":[3.0]
	},
	{
		"min":[1.0,
		1.0,
		1.0],
		"count":48,
		"bufferView":28,
		"type":"VEC3",
		"componentType":5126,
		"byteOffset":192,
		"max":[1.0,
		1.0,
		1.0]
	}],
	"bufferViews":[{
		"buffer":0,
		"byteOffset":0,
		"byteLength":40
	},
	{
		"buffer":1,
		"byteOffset":0,
		"byteLength":944
	},
	{
		"buffer":1,
		"byteOffset":944,
		"byteLength":1180
	},
	{
		"buffer":1,
		"byteOffset":2124,
		"byteLength":944
	},
	{
		"buffer":2,
		"byteOffset":0,
		"byteLength":53580,
		"target":34963
	},
	{
		"buffer":2,
		"byteStride":32,
		"byteOffset":53580,
		"byteLength":303968,
		"target":34962
	},
	{
		"buffer":3,
		"byteOffset":0,
		"byteLength":784
	},
	{
		"buffer":3,
		"byteOffset":784,
		"byteLength":980
	},
	{
		"buffer":3,
		"byteOffset":1764,
		"byteLength":784
	},
	{
		"buffer":4,
		"byteOffset":0,
		"byteLength":13476,
		"target":34963
	},
	{
		"buffer":4,
		"byteStride":32,
		"byteOffset":13476,
		"byteLength":76864,
		"target":34962
	},
	{
		"buffer":5,
		"byteOffset":0,
		"byteLength":1328
	},
	{
		"buffer":5,
		"byteOffset":1328,
		"byteLength":1660
	},
	{
		"buffer":5,
		"byteOffset":2988,
		"byteLength":1328
	},
	{
		"buffer":6,
		"byteOffset":0,
		"byteLength":8832,
		"target":34963
	},
	{
		"buffer":6,
		"byteStride":32,
		"byteOffset":8832,
		"byteLength":32896,
		"target":34962
	},
	{
		"buffer":7,
		"byteOffset":0,
		"byteLength":944
	},
	{
		"buffer":7,
		"byteOffset":944,
		"byteLength":1180
	},
	{
		"buffer":7,
		"byteOffset":2124,
		"byteLength":944
	},
	{
		"buffer":8,
		"byteOffset":0,
		"byteLength":432,
		"target":34963
	},
	{
		"buffer":8,
		"byteStride":32,
		"byteOffset":432,
		"byteLength":3584,
		"target":34962
	},
	{
		"buffer":9,
		"byteOffset":0,
		"byteLength":768
	},
	{
		"buffer":9,
		"byteOffset":768,
		"byteLength":960
	},
	{
		"buffer":9,
		"byteOffset":1728,
		"byteLength":768
	},
	{
		"buffer":10,
		"byteOffset":0,
		"byteLength":13812,
		"target":34963
	},
	{
		"buffer":10,
		"byteStride":32,
		"byteOffset":13812,
		"byteLength":91424,
		"target":34962
	},
	{
		"buffer":11,
		"byteOffset":0,
		"byteLength":768
	},
	{
		"buffer":11,
		"byteOffset":768,
		"byteLength":960
	},
	{
		"buffer":11,
		"byteOffset":1728,
		"byteLength":768
	}],
	"images":[{
		"uri":"data:image/jpeg;base64,"
	},
	{
		"uri":"data:image/jpeg;base64,"
	}],
	"materials":[{
		"pbrMetallicRoughness":{
			"baseColorTexture":{
				"index":0
			},
			"baseColorFactor":[0.8,
			0.8,
			0.8,
			1.0],
			"metallicFactor":0.0,
			"roughnessFactor":0.5
		},
		"emissiveFactor":[0.0,
		0.0,
		0.0],
		"alphaMode":"OPAQUE",
		"doubleSided":false,
		"name":"Material #77"
	},
	{
		"pbrMetallicRoughness":{
			"baseColorTexture":{
				"index":1
			},
			"baseColorFactor":[0.8,
			0.8,
			0.8,
			1.0],
			"metallicFactor":0.0,
			"roughnessFactor":0.5
		},
		"emissiveFactor":[0.0,
		0.0,
		0.0],
		"alphaMode":"OPAQUE",
		"doubleSided":false,
		"name":"Material #27"
	},
	{
		"pbrMetallicRoughness":{
			"baseColorFactor":[0.0,
			0.0,
			0.0,
			1.0],
			"metallicFactor":1.0,
			"roughnessFactor":1.0
		},
		"emissiveFactor":[0.0,
		0.0,
		0.0],
		"alphaMode":"OPAQUE",
		"doubleSided":false,
		"name":"02 - Default"
	}],
	"samplers":[{
		"magFilter":9729,
		"minFilter":9729,
		"wrapS":10497,
		"wrapT":10497
	},
	{
		"magFilter":9729,
		"minFilter":9729,
		"wrapS":10497,
		"wrapT":10497
	}],
	"textures":[{
		"sampler":0,
		"source":0
	},
	{
		"sampler":1,
		"source":1
	}]
}