{
	"asset":{
		"version":"2.0",
		"generator":"Created using the official Cinema 4D glTF Exporter 1.000x284978"
	},
	"scenes":[{
		"nodes":[0]
	}],
	"nodes":[{
		"name":"Point001",
		"translation":[-0.13679397106170655,
		9.431650161743164,
		2.1175451278686525],
		"rotation":[0.7071067690849304,
		0.0,
		0.0,
		-0.7071067690849304],
		"scale":[1.0,
		1.0,
		1.0],
		"children":[1,
		2,
		3]
	},
	{
		"name":"Object007",
		"translation":[-0.000002422332727292087,
		0.0,
		0.0],
		"rotation":[0.0,
		0.0,
		0.0,
		-1.0],
		"scale":[1.0,
		1.0,
		1.0],
		"mesh":0
	},
	{
		"name":"Object006",
		"translation":[-0.0000024140194909705316,
		-0.007301218342036009,
		0.3462185561656952],
		"rotation":[0.012275864370167256,
		0.0,
		0.0,
		-0.9999246597290039],
		"scale":[1.0,
		1.0,
		1.0],
		"mesh":1
	},
	{
		"name":"Object001",
		"translation":[-0.000002422332727292087,
		0.0,
		0.0],
		"rotation":[0.0,
		0.0,
		0.0,
		-1.0],
		"scale":[1.0,
		1.0,
		1.0],
		"mesh":2
	}],
	"meshes":[{
		"name":"Object007",
		"primitives":[{
			"attributes":{
				"POSITION":7,
				"NORMAL":8,
				"TEXCOORD_0":9
			},
			"indices":6,
			"material":0
		}]
	},
	{
		"name":"Object006",
		"primitives":[{
			"attributes":{
				"POSITION":17,
				"NORMAL":18,
				"TEXCOORD_0":19
			},
			"indices":16,
			"material":0
		}]
	},
	{
		"name":"Object001",
		"primitives":[{
			"attributes":{
				"POSITION":27,
				"NORMAL":28,
				"TEXCOORD_0":29
			},
			"indices":26,
			"material":0
		}]
	}],
	"accessors":[{
		"bufferView":0,
		"type":"SCALAR",
		"componentType":5126,
		"count":29,
		"byteOffset":0,
		"min":[0.0],
		"max":[3.0]
	},
	{
		"bufferView":0,
		"type":"VEC3",
		"componentType":5126,
		"count":29,
		"byteOffset":116,
		"min":[-0.13679397106170655,
		5.661645889282227,
		2.1175451278686525],
		"max":[-0.13679397106170655,
		10.293405532836914,
		2.1175451278686525]
	},
	{
		"bufferView":1,
		"type":"SCALAR",
		"componentType":5126,
		"count":4,
		"byteOffset":0,
		"min":[0.0],
		"max":[3.0]
	},
	{
		"bufferView":1,
		"type":"VEC4",
		"componentType":5126,
		"count":4,
		"byteOffset":16,
		"min":[0.7071067690849304,
		0.0,
		0.0,
		-0.7071067690849304],
		"max":[0.7071067690849304,
		0.0,
		0.0,
		-0.7071067690849304]
	},
	{
		"bufferView":2,
		"type":"SCALAR",
		"componentType":5126,
		"count":4,
		"byteOffset":0,
		"min":[0.0],
		"max":[3.0]
	},
	{
		"bufferView":2,
		"type":"VEC3",
		"componentType":5126,
		"count":4,
		"byteOffset":16,
		"min":[1.0,
		1.0,
		1.0],
		"max":[1.0,
		1.0,
		1.0]
	},
	{
		"bufferView":3,
		"type":"SCALAR",
		"componentType":5123,
		"count":26790,
		"byteOffset":0,
		"min":[0],
		"max":[9498]
	},
	{
		"bufferView":4,
		"type":"VEC3",
		"componentType":5126,
		"count":9499,
		"byteOffset":0,
		"min":[-21.062694549560548,
		-14.875746726989746,
		0.5905478596687317],
		"max":[21.059528350830079,
		13.40119743347168,
		1.0002135038375855]
	},
	{
		"bufferView":4,
		"type":"VEC3",
		"componentType":5126,
		"count":9499,
		"byteOffset":12,
		"min":[-0.9999654293060303,
		-0.9999489188194275,
		-1.0],
		"max":[0.9999629259109497,
		0.999949038028717,
		1.0]
	},
	{
		"bufferView":4,
		"type":"VEC2",
		"componentType":5126,
		"count":9499,
		"byteOffset":24,
		"min":[0.0057832165621221069,
		0.00442349910736084],
		"max":[1.0012494325637818,
		0.9895342588424683]
	},
	{
		"bufferView":5,
		"type":"SCALAR",
		"componentType":5126,
		"count":2,
		"byteOffset":0,
		"min":[0.0],
		"max":[3.0]
	},
	{
		"bufferView":5,
		"type":"VEC3",
		"componentType":5126,
		"count":2,
		"byteOffset":8,
		"min":[-0.000002422332727292087,
		0.0,
		0.0],
		"max":[-0.000002422332727292087,
		0.0,
		0.0]
	},
	{
		"bufferView":6,
		"type":"SCALAR",
		"componentType":5126,
		"count":2,
		"byteOffset":0,
		"min":[0.0],
		"max":[3.0]
	},
	{
		"bufferView":6,
		"type":"VEC4",
		"componentType":5126,
		"count":2,
		"byteOffset":8,
		"min":[0.0,
		0.0,
		0.0,
		-1.0],
		"max":[0.0,
		0.0,
		0.0,
		-1.0]
	},
	{
		"bufferView":7,
		"type":"SCALAR",
		"componentType":5126,
		"count":2,
		"byteOffset":0,
		"min":[0.0],
		"max":[3.0]
	},
	{
		"bufferView":7,
		"type":"VEC3",
		"componentType":5126,
		"count":2,
		"byteOffset":8,
		"min":[1.0,
		1.0,
		1.0],
		"max":[1.0,
		1.0,
		1.0]
	},
	{
		"bufferView":8,
		"type":"SCALAR",
		"componentType":5123,
		"count":6738,
		"byteOffset":0,
		"min":[0],
		"max":[2401]
	},
	{
		"bufferView":9,
		"type":"VEC3",
		"componentType":5126,
		"count":2402,
		"byteOffset":0,
		"min":[-20.836894989013673,
		13.246359825134278,
		-0.09760305285453797],
		"max":[21.11149024963379,
		19.838151931762697,
		28.909500122070314]
	},
	{
		"bufferView":9,
		"type":"VEC3",
		"componentType":5126,
		"count":2402,
		"byteOffset":12,
		"min":[-1.0,
		-0.9836699962615967,
		-0.999911367893219],
		"max":[1.0,
		0.9994407892227173,
		0.9958863854408264]
	},
	{
		"bufferView":9,
		"type":"VEC2",
		"componentType":5126,
		"count":2402,
		"byteOffset":24,
		"min":[0.005472123622894287,
		0.004984498023986816],
		"max":[0.9973046779632568,
		0.9931535720825195]
	},
	{
		"bufferView":10,
		"type":"SCALAR",
		"componentType":5126,
		"count":27,
		"byteOffset":0,
		"min":[0.0],
		"max":[3.0]
	},
	{
		"bufferView":10,
		"type":"VEC3",
		"componentType":5126,
		"count":27,
		"byteOffset":108,
		"min":[-0.0000024140194909705316,
		-0.007695486769080162,
		-13.61517333984375],
		"max":[-0.0000024140194909705316,
		16.978696823120118,
		1.7068251371383668]
	},
	{
		"bufferView":11,
		"type":"SCALAR",
		"componentType":5126,
		"count":27,
		"byteOffset":0,
		"min":[0.0],
		"max":[3.0]
	},
	{
		"bufferView":11,
		"type":"VEC4",
		"componentType":5126,
		"count":27,
		"byteOffset":108,
		"min":[-0.7653594017028809,
		0.0,
		0.0,
		-0.9999246597290039],
		"max":[0.06052780523896217,
		0.0,
		0.0,
		-0.6436031460762024]
	},
	{
		"bufferView":12,
		"type":"SCALAR",
		"componentType":5126,
		"count":3,
		"byteOffset":0,
		"min":[0.0],
		"max":[3.0]
	},
	{
		"bufferView":12,
		"type":"VEC3",
		"componentType":5126,
		"count":3,
		"byteOffset":12,
		"min":[1.0,
		1.0,
		1.0],
		"max":[1.0,
		1.0,
		1.0]
	},
	{
		"bufferView":13,
		"type":"SCALAR",
		"componentType":5123,
		"count":6906,
		"byteOffset":0,
		"min":[0],
		"max":[2856]
	},
	{
		"bufferView":14,
		"type":"VEC3",
		"componentType":5126,
		"count":2857,
		"byteOffset":0,
		"min":[-21.062776565551759,
		-14.88105297088623,
		-0.8694144487380981],
		"max":[21.067035675048829,
		14.753732681274414,
		1.5112913846969605]
	},
	{
		"bufferView":14,
		"type":"VEC3",
		"componentType":5126,
		"count":2857,
		"byteOffset":12,
		"min":[-0.999968409538269,
		-0.9999653697013855,
		-0.9999983906745911],
		"max":[0.9999659061431885,
		0.9999979138374329,
		1.0]
	},
	{
		"bufferView":14,
		"type":"VEC2",
		"componentType":5126,
		"count":2857,
		"byteOffset":24,
		"min":[0.0109691321849823,
		-0.991821825504303],
		"max":[0.9951086044311523,
		-0.007743477821350098]
	},
	{
		"bufferView":15,
		"type":"SCALAR",
		"componentType":5126,
		"count":2,
		"byteOffset":0,
		"min":[0.0],
		"max":[3.0]
	},
	{
		"bufferView":15,
		"type":"VEC4",
		"componentType":5126,
		"count":2,
		"byteOffset":8,
		"min":[0.0,
		0.0,
		0.0,
		-1.0],
		"max":[0.0,
		0.0,
		0.0,
		-1.0]
	}],
	"bufferViews":[{
		"buffer":0,
		"byteOffset":0,
		"byteLength":464
	},
	{
		"buffer":0,
		"byteOffset":464,
		"byteLength":80
	},
	{
		"buffer":0,
		"byteOffset":544,
		"byteLength":64
	},
	{
		"buffer":1,
		"byteOffset":0,
		"byteLength":53580,
		"target":34963
	},
	{
		"buffer":1,
		"byteOffset":53580,
		"byteLength":303968,
		"target":34962,
		"byteStride":32
	},
	{
		"buffer":2,
		"byteOffset":0,
		"byteLength":32
	},
	{
		"buffer":2,
		"byteOffset":32,
		"byteLength":40
	},
	{
		"buffer":2,
		"byteOffset":72,
		"byteLength":32
	},
	{
		"buffer":3,
		"byteOffset":0,
		"byteLength":13476,
		"target":34963
	},
	{
		"buffer":3,
		"byteOffset":13476,
		"byteLength":76864,
		"target":34962,
		"byteStride":32
	},
	{
		"buffer":4,
		"byteOffset":0,
		"byteLength":432
	},
	{
		"buffer":4,
		"byteOffset":432,
		"byteLength":540
	},
	{
		"buffer":4,
		"byteOffset":972,
		"byteLength":48
	},
	{
		"buffer":5,
		"byteOffset":0,
		"byteLength":13812,
		"target":34963
	},
	{
		"buffer":5,
		"byteOffset":13812,
		"byteLength":91424,
		"target":34962,
		"byteStride":32
	},
	{
		"buffer":6,
		"byteOffset":0,
		"byteLength":40
	}],
	"buffers":[{
		"uri":"data:application/octet-stream;base64,",
		"byteLength":608
	},
	{
		"uri":"data:application/octet-stream;base64,",
		"byteLength":357548
	},
	{
		"uri":"data:application/octet-stream;base64,",
		"byteLength":104
	},
	{
		"uri":"data:application/octet-stream;base64,",
		"byteLength":90340
	},
	{
		"uri":"data:application/octet-stream;base64,",
		"byteLength":1020
	},
	{
		"uri":"data:application/octet-stream;base64,",
		"byteLength":105236
	},
	{
		"uri":"data:application/octet-stream;base64,",
		"byteLength":40
	}],
	"images":[{
		"uri":"data:image/jpeg;base64,"
	},
	{
		"uri":"data:image/jpeg;base64,"
	}],
	"samplers":[{
		"magFilter":9729,
		"minFilter":9729,
		"wrapS":10497,
		"wrapT":10497
	},
	{
		"magFilter":9729,
		"minFilter":9729,
		"wrapS":10497,
		"wrapT":10497
	}],
	"textures":[{
		"sampler":0,
		"source":0
	},
	{
		"sampler":1,
		"source":1
	}],
	"materials":[{
		"pbrMetallicRoughness":{
			"baseColorTexture":{
				"index":0
			},
			"baseColorFactor":[0.8,
			0.8,
			0.8,
			1.0],
			"metallicFactor":0.0,
			"roughnessFactor":0.5
		},
		"normalTexture":{
			"index":1,
			"scale":1.0
		},
		"emissiveFactor":[0.0,
		0.0,
		0.0],
		"alphaMode":"OPAQUE",
		"doubleSided":false,
		"name":"Material #77"
	}],
	"animations":[{
		"samplers":[{
			"input":0,
			"interpolation":"LINEAR",
			"output":1
		},
		{
			"input":2,
			"interpolation":"LINEAR",
			"output":3
		},
		{
			"input":4,
			"interpolation":"LINEAR",
			"output":5
		},
		{
			"input":10,
			"interpolation":"LINEAR",
			"output":11
		},
		{
			"input":12,
			"interpolation":"LINEAR",
			"output":13
		},
		{
			"input":14,
			"interpolation":"LINEAR",
			"output":15
		},
		{
			"input":20,
			"interpolation":"LINEAR",
			"output":21
		},
		{
			"input":22,
			"interpolation":"LINEAR",
			"output":23
		},
		{
			"input":24,
			"interpolation":"LINEAR",
			"output":25
		},
		{
			"input":30,
			"interpolation":"LINEAR",
			"output":31
		}],
		"channels":[{
			"sampler":0,
			"target":{
				"node":0,
				"path":"translation"
			}
		},
		{
			"sampler":1,
			"target":{
				"node":0,
				"path":"rotation"
			}
		},
		{
			"sampler":2,
			"target":{
				"node":0,
				"path":"scale"
			}
		},
		{
			"sampler":3,
			"target":{
				"node":1,
				"path":"translation"
			}
		},
		{
			"sampler":4,
			"target":{
				"node":1,
				"path":"rotation"
			}
		},
		{
			"sampler":5,
			"target":{
				"node":1,
				"path":"scale"
			}
		},
		{
			"sampler":6,
			"target":{
				"node":2,
				"path":"translation"
			}
		},
		{
			"sampler":7,
			"target":{
				"node":2,
				"path":"rotation"
			}
		},
		{
			"sampler":8,
			"target":{
				"node":2,
				"path":"scale"
			}
		},
		{
			"sampler":9,
			"target":{
				"node":3,
				"path":"rotation"
			}
		}]
	}]
}